<?xml version="1.0" encoding="utf-8"?>
<!-- Generator: Adobe Illustrator 26.4.1, SVG Export Plug-In . SVG Version: 6.00 Build 0)  -->
<svg version="1.1" id="Слой_1" xmlns="http://www.w3.org/2000/svg" xmlns:xlink="http://www.w3.org/1999/xlink" x="0px" y="0px"
	 viewBox="0 0 20 20" style="enable-background:new 0 0 20 20;" xml:space="preserve">
<style type="text/css">
	.st0{fill:#E6E6E6;}
	.st1{fill:#CCCCCC;}
	.st2{fill:#74FF7F;}
	.st3{font-family:'Consolas-Bold';}
	.st4{font-size:7px;}
</style>
<g>
	<g>
		<g>
			<polygon class="st0" points="14,6.3 14,16.1 0,16.1 0,0 7.9,0 			"/>
			<polygon class="st1" points="14,6.3 7.9,6.3 7.9,0 			"/>
		</g>
		<g>
			<path class="st1" d="M12.1,9.4H1.9c-0.1,0-0.2-0.1-0.2-0.2V8.7c0-0.1,0.1-0.2,0.2-0.2H12c0.1,0,0.2,0.1,0.2,0.2v0.5
				C12.3,9.3,12.2,9.4,12.1,9.4z"/>
			<path class="st1" d="M12.1,11.2H1.9c-0.1,0-0.2-0.1-0.2-0.2v-0.5c0-0.1,0.1-0.2,0.2-0.2H12c0.1,0,0.2,0.1,0.2,0.2V11
				C12.3,11.1,12.2,11.2,12.1,11.2z"/>
			<path class="st1" d="M12.1,13H1.9c-0.1,0-0.2-0.1-0.2-0.2v-0.5c0-0.1,0.1-0.2,0.2-0.2H12c0.1,0,0.2,0.1,0.2,0.2v0.5
				C12.3,12.9,12.2,13,12.1,13z"/>
		</g>
	</g>
	<g>
		<ellipse class="st2" cx="15.6" cy="15.7" rx="4.4" ry="4.2"/>
		<text transform="matrix(1.0495 0 0 1 13.543 17.5811)" class="st3 st4">+</text>
	</g>
</g>
</svg>
