<?xml version="1.0" encoding="utf-8"?>
<!-- Generator: Adobe Illustrator 26.4.1, SVG Export Plug-In . SVG Version: 6.00 Build 0)  -->
<svg version="1.1" id="Слой_1" xmlns="http://www.w3.org/2000/svg" xmlns:xlink="http://www.w3.org/1999/xlink" x="0px" y="0px"
	 viewBox="0 0 20 20" style="enable-background:new 0 0 20 20;" xml:space="preserve">
<style type="text/css">
	.st0{fill:#FF6666;stroke:#FF6666;stroke-miterlimit:10;}
	.st1{fill:#FF6666;}
	.st2{fill:none;stroke:#FF6666;stroke-width:0.8;stroke-miterlimit:10;}
</style>
<g>
	<path class="st0" d="M13.5,17.5H6.5c-0.9,0-1.6-0.7-1.6-1.6V7.3h10.2v8.7C15.1,16.8,14.4,17.5,13.5,17.5z"/>
	<g>
		<path class="st1" d="M15.8,4.9H4.2C4.1,4.9,4,4.8,4,4.7V4.4c0-0.1,0.1-0.2,0.2-0.2h11.5c0.1,0,0.2,0.1,0.2,0.2v0.3
			C16,4.8,15.9,4.9,15.8,4.9z"/>
		<path class="st2" d="M7.7,4.6c0-1.1,0.6-2.1,1.4-2.1h1.8c0.8,0,1.4,0.9,1.4,2.1H7.7z"/>
	</g>
</g>
</svg>
