<?xml version="1.0" encoding="utf-8"?>
<!-- Generator: Adobe Illustrator 26.4.1, SVG Export Plug-In . SVG Version: 6.00 Build 0)  -->
<svg version="1.1" id="Слой_1" xmlns="http://www.w3.org/2000/svg" xmlns:xlink="http://www.w3.org/1999/xlink" x="0px" y="0px"
	 viewBox="0 0 12 15" style="enable-background:new 0 0 12 15;" xml:space="preserve">
<style type="text/css">
	.st0{fill:none;stroke:#4D4D4D;stroke-miterlimit:10;}
</style>
<path class="st0" d="M11.5,4.5v8.3c0,0.9-0.8,1.7-1.7,1.7H2.2c-0.9,0-1.7-0.8-1.7-1.7V2.2c0-0.9,0.8-1.7,1.7-1.7h5.5
	c0.5,0,0.9,0.2,1.3,0.5L11,3.3C11.3,3.7,11.5,4.1,11.5,4.5z"/>
<path class="st0" d="M11,3.3c0.3,0.3,0.5,0.7,0.5,1.2v0.7H8.2c-0.5,0-0.9-0.4-0.9-0.9V0.5h0.4c0.5,0,0.9,0.2,1.3,0.5L11,3.3z"/>
</svg>
