<?xml version="1.0" encoding="utf-8"?>
<!-- Generator: Adobe Illustrator 26.4.1, SVG Export Plug-In . SVG Version: 6.00 Build 0)  -->
<svg version="1.1" id="Слой_1" xmlns="http://www.w3.org/2000/svg" xmlns:xlink="http://www.w3.org/1999/xlink" x="0px" y="0px"
	 viewBox="0 0 15 12" style="enable-background:new 0 0 15 12;" xml:space="preserve">
<style type="text/css">
	.st0{fill:#4D4D4D;}
</style>
<g>
	<path class="st0" d="M1.7,1l4.7,0c0.4,0,1.5,0.6,1.9,0.9c0.5,0.4,1.2,0.5,1.9,0.5c0.3,0,0.6,0,0.9,0c0.3,0,0.7,0,1,0
		C14,2.3,14,2.8,14,3.2v7.1c0,0.4-0.3,0.7-0.7,0.7H1.7C1.3,11,1,10.7,1,10.3V1.7c0-0.2,0.1-0.4,0.2-0.5C1.3,1.1,1.5,1,1.7,1 M1.7,0
		C0.8,0,0,0.8,0,1.7v8.6C0,11.2,0.8,12,1.7,12h11.6c0.9,0,1.7-0.8,1.7-1.7V3.2c0-1.6-1.4-1.9-2.8-1.9c-0.7,0-1.4,0.1-1.9,0.1
		c-0.6,0-1-0.1-1.3-0.3C8.9,1,7.3,0,6.4,0L1.7,0L1.7,0z"/>
</g>
</svg>
