<?xml version="1.0" encoding="utf-8"?>
<!-- Generator: Adobe Illustrator 26.4.1, SVG Export Plug-In . SVG Version: 6.00 Build 0)  -->
<svg version="1.1" id="Слой_1" xmlns="http://www.w3.org/2000/svg" xmlns:xlink="http://www.w3.org/1999/xlink" x="0px" y="0px"
	 viewBox="0 0 15 20" style="enable-background:new 0 0 15 20;" xml:space="preserve">
<style type="text/css">
	.st0{fill:#E6E6E6;}
	.st1{fill:#CCCCCC;}
</style>
<g>
	<g>
		<g>
			<polygon class="st0" points="15,7.8 15,20 0,20 0,0 8.4,0 			"/>
			<polygon class="st1" points="15,7.8 8.4,7.8 8.4,0 			"/>
		</g>
		<g>
			<path class="st1" d="M13,11.7H2c-0.1,0-0.1-0.1-0.1-0.1v-0.8c0-0.1,0.1-0.1,0.1-0.1h11c0.1,0,0.1,0.1,0.1,0.1v0.8
				C13.1,11.6,13.1,11.7,13,11.7z"/>
			<path class="st1" d="M13,13.9H2c-0.1,0-0.1-0.1-0.1-0.1v-0.8c0-0.1,0.1-0.1,0.1-0.1h11c0.1,0,0.1,0.1,0.1,0.1v0.8
				C13.1,13.8,13.1,13.9,13,13.9z"/>
			<path class="st1" d="M13,16.1H2c-0.1,0-0.1-0.1-0.1-0.1v-0.8C1.9,15.1,1.9,15,2,15h11c0.1,0,0.1,0.1,0.1,0.1V16
				C13.1,16,13.1,16.1,13,16.1z"/>
		</g>
	</g>
</g>
</svg>
