<?xml version="1.0" encoding="utf-8"?>
<!-- Generator: Adobe Illustrator 26.4.1, SVG Export Plug-In . SVG Version: 6.00 Build 0)  -->
<svg version="1.1" id="Слой_1" xmlns="http://www.w3.org/2000/svg" xmlns:xlink="http://www.w3.org/1999/xlink" x="0px" y="0px"
	 viewBox="0 0 20 15" style="enable-background:new 0 0 20 15;" xml:space="preserve">
<style type="text/css">
	.st0{fill:#333333;}
	.st1{stroke:#333333;stroke-miterlimit:10;}
</style>
<g>
	<g>
		<path class="st0" d="M16.1,1.5c1.3,0,2.4,1.1,2.4,2.4v7.2c0,1.3-1.1,2.4-2.4,2.4H3.9c-1.3,0-2.4-1.1-2.4-2.4V3.9
			c0-1.3,1.1-2.4,2.4-2.4H16.1 M16.1,0H3.9C1.7,0,0,1.7,0,3.9v7.2C0,13.3,1.7,15,3.9,15h12.2c2.2,0,3.9-1.7,3.9-3.9V3.9
			C20,1.7,18.3,0,16.1,0L16.1,0z"/>
	</g>
	<g>
		<polygon class="st1" points="8.2,7.1 5.3,4.2 4.9,4.6 7.8,7.5 4.9,10.4 5.3,10.8 8.2,7.9 8.6,7.5 		"/>
		<rect x="9.3" y="10.3" class="st1" width="5.8" height="0.5"/>
	</g>
</g>
</svg>
