<?xml version="1.0" encoding="utf-8"?>
<!-- Generator: Adobe Illustrator 26.4.1, SVG Export Plug-In . SVG Version: 6.00 Build 0)  -->
<svg version="1.1" id="Слой_1" xmlns="http://www.w3.org/2000/svg" xmlns:xlink="http://www.w3.org/1999/xlink" x="0px" y="0px"
	 viewBox="0 0 20 20" style="enable-background:new 0 0 20 20;" xml:space="preserve">
<style type="text/css">
	.st0{fill:#E6E6E6;stroke:#E6E6E6;stroke-miterlimit:10;}
</style>
<path class="st0" d="M16.8,16l-6-6l6-6c0.2-0.2,0.2-0.6,0-0.9s-0.6-0.2-0.9,0l-6,6l-6-6c-0.2-0.2-0.6-0.2-0.9,0
	C2.9,3.4,2.9,3.8,3.2,4l6,6l-6,6c-0.2,0.2-0.2,0.6,0,0.9s0.6,0.2,0.9,0l6-6l6,6c0.2,0.2,0.6,0.2,0.9,0C17.1,16.6,17.1,16.2,16.8,16z
	"/>
</svg>
