<?xml version="1.0" encoding="utf-8"?>
<!-- Generator: Adobe Illustrator 26.4.1, SVG Export Plug-In . SVG Version: 6.00 Build 0)  -->
<svg version="1.1" id="Слой_1" xmlns="http://www.w3.org/2000/svg" xmlns:xlink="http://www.w3.org/1999/xlink" x="0px" y="0px"
	 viewBox="0 0 20 20" style="enable-background:new 0 0 20 20;" xml:space="preserve">
<style type="text/css">
	.st0{fill:#E6E6E6;}
	.st1{fill:none;stroke:#E6E6E6;stroke-miterlimit:10;}
</style>
<g>
	<g>
		<path class="st0" d="M10.5,17.2V17h1.2c0.6,0,1.1-0.7,1.1-1.4V4.7c0-0.8-0.5-1.4-1.1-1.4h-1.2V3.1H15v0.2h-1.1
			c-0.6,0-1.1,0.7-1.1,1.4v10.8c0,0.8,0.5,1.4,1.1,1.4h1.2v0.2L10.5,17.2L10.5,17.2z"/>
		<path class="st0" d="M15.5,2.5h-2.3h-0.9H10v1.3h1.6c0.4,0,0.6,0.5,0.6,0.8v10.8c0,0.6-0.3,0.8-0.6,0.8H10v1.3h2.3h0.9h2.3v-1.3
			h-1.6c-0.4,0-0.6-0.5-0.6-0.8V4.7c0-0.6,0.3-0.8,0.6-0.8h1.6V2.5L15.5,2.5z"/>
	</g>
	<rect x="2.5" y="6.8" class="st1" width="15" height="6.3"/>
</g>
</svg>
