<?xml version="1.0" encoding="utf-8"?>
<!-- Generator: Adobe Illustrator 26.4.1, SVG Export Plug-In . SVG Version: 6.00 Build 0)  -->
<svg version="1.1" id="Слой_1" xmlns="http://www.w3.org/2000/svg" xmlns:xlink="http://www.w3.org/1999/xlink" x="0px" y="0px"
	 viewBox="0 0 20 20" style="enable-background:new 0 0 20 20;" xml:space="preserve">
<style type="text/css">
	.st0{fill:#E6E6E6;}
	.st1{fill:#CCCCCC;}
	.st2{fill:#74FF7F;}
	.st3{stroke:#000000;stroke-width:0.25;stroke-miterlimit:10;}
</style>
<g>
	<g>
		<g>
			<g>
				<polygon class="st0" points="14,6.4 14,16.2 0,16.2 0,0.1 7.9,0.1 				"/>
				<polygon class="st1" points="14,6.4 7.9,6.4 7.9,0.1 				"/>
			</g>
			<g>
				<path class="st1" d="M12.1,9.4H1.9c-0.1,0-0.2-0.1-0.2-0.2V8.8c0-0.1,0.1-0.2,0.2-0.2H12c0.1,0,0.2,0.1,0.2,0.2v0.5
					C12.3,9.4,12.2,9.4,12.1,9.4z"/>
				<path class="st1" d="M12.1,11.2H1.9c-0.1,0-0.2-0.1-0.2-0.2v-0.5c0-0.1,0.1-0.2,0.2-0.2H12c0.1,0,0.2,0.1,0.2,0.2v0.5
					C12.3,11.2,12.2,11.2,12.1,11.2z"/>
				<path class="st1" d="M12.1,13.1H1.9c-0.1,0-0.2-0.1-0.2-0.2v-0.5c0-0.1,0.1-0.2,0.2-0.2H12c0.1,0,0.2,0.1,0.2,0.2v0.5
					C12.3,12.9,12.2,13.1,12.1,13.1z"/>
			</g>
		</g>
		<g>
			<ellipse class="st2" cx="15.6" cy="15.8" rx="4.4" ry="4.2"/>
		</g>
	</g>
	<polygon class="st3" points="16,17.9 17.8,16 17.4,15.7 15.9,17.2 15.9,13.3 15.3,13.3 15.3,17.2 13.8,15.7 13.4,16 15.2,17.9 
		15.6,18.2 	"/>
</g>
</svg>
