<?xml version="1.0" encoding="utf-8"?>
<!-- Generator: Adobe Illustrator 26.4.1, SVG Export Plug-In . SVG Version: 6.00 Build 0)  -->
<svg version="1.1" id="Слой_1" xmlns="http://www.w3.org/2000/svg" xmlns:xlink="http://www.w3.org/1999/xlink" x="0px" y="0px"
	 viewBox="0 0 20 20" style="enable-background:new 0 0 20 20;" xml:space="preserve">
<style type="text/css">
	.st0{fill:#333333;}
</style>
<g>
	<g>
		<path class="st0" d="M3.6,16.3c0.3,0.3,0.5,0.5,0.8,0.7l3.3-1.5l1.2,3.4c0.7,0.1,1.5,0.1,2.2,0l1.2-3.4l3.3,1.5
			c0.3-0.2,0.5-0.4,0.8-0.7s0.5-0.5,0.7-0.8l-1.5-3.2l3.4-1.2c0.1-0.7,0.1-1.4,0-2.2l-3.4-1.2L17,4.6c-0.2-0.3-0.5-0.5-0.7-0.8
			S15.8,3.2,15.5,3l-3.3,1.5L11,1.1C10.4,1,9.7,1,9,1.1L7.7,4.4L4.4,2.9C4.2,3.1,3.9,3.3,3.6,3.6S3.2,4.1,2.9,4.4l1.5,3.2L1.1,8.9
			C1,9.6,1,10.3,1.1,11l3.4,1.2L3,15.4C3.2,15.8,3.3,16.1,3.6,16.3z M6.9,6.8c1.7-1.7,4.6-1.7,6.3,0s1.7,4.6,0,6.3s-4.6,1.7-6.3,0
			S5.1,8.5,6.9,6.8z"/>
	</g>
	<g>
		<ellipse class="st0" cx="10" cy="10" rx="3" ry="3"/>
	</g>
</g>
</svg>
