<?xml version="1.0" encoding="utf-8"?>
<!-- Generator: Adobe Illustrator 26.4.1, SVG Export Plug-In . SVG Version: 6.00 Build 0)  -->
<svg version="1.1" id="Слой_1" xmlns="http://www.w3.org/2000/svg" xmlns:xlink="http://www.w3.org/1999/xlink" x="0px" y="0px"
	 viewBox="0 0 240 230" style="enable-background:new 0 0 240 230;" xml:space="preserve">
<style type="text/css">
	.st0{fill:url(#SVGID_1_);}
	.st1{fill:url(#SVGID_00000011750544473755902190000014905017585901743769_);}
</style>
<g>
	<g>
		
			<linearGradient id="SVGID_1_" gradientUnits="userSpaceOnUse" x1="186.5535" y1="-103.3219" x2="59.8716" y2="-176.4618" gradientTransform="matrix(1 0 0 1 0 234.6479)">
			<stop  offset="0" style="stop-color:#FFEE25"/>
			<stop  offset="1.780000e-02" style="stop-color:#FFE920"/>
			<stop  offset="0.102" style="stop-color:#FED60E"/>
			<stop  offset="0.1886" style="stop-color:#FDCB04"/>
			<stop  offset="0.2809" style="stop-color:#FDC700"/>
			<stop  offset="0.6685" style="stop-color:#F08F34"/>
			<stop  offset="0.8876" style="stop-color:#E86031"/>
			<stop  offset="1" style="stop-color:#E2312D"/>
		</linearGradient>
		<path class="st0" d="M69.9,121.6l24.5,6.6c1.7,0.5,2,2.8,0.5,3.6l-28,16.7c-1.3,0.8-1.2,2.9,0.2,3.5c6.6,3.1,15.4,6.5,25.6,8.9
			c28.4,6.6,56,3.3,82.2-10.2c1-0.5,1.3-1.6,1-2.6L116,1.2c-0.6-1.3-2.4-1.6-3.4-0.5L47.9,78.9l45.2-30.2c1.6-1.1,3.6,0.6,2.9,2.4
			L68.6,119C68.2,120.1,68.8,121.4,69.9,121.6z"/>
	</g>
	
		<linearGradient id="SVGID_00000009584197090734300340000017382550953160870798_" gradientUnits="userSpaceOnUse" x1="209.4844" y1="-3.8787" x2="29.2373" y2="100.187" gradientTransform="matrix(1 0 0 -1 0 230)">
		<stop  offset="0" style="stop-color:#FFEE25"/>
		<stop  offset="1.780000e-02" style="stop-color:#FFE920"/>
		<stop  offset="0.102" style="stop-color:#FED60E"/>
		<stop  offset="0.1886" style="stop-color:#FDCB04"/>
		<stop  offset="0.2809" style="stop-color:#FDC700"/>
		<stop  offset="0.6685" style="stop-color:#F08F34"/>
		<stop  offset="0.8876" style="stop-color:#E86031"/>
		<stop  offset="1" style="stop-color:#E2312D"/>
	</linearGradient>
	<path style="fill:url(#SVGID_00000009584197090734300340000017382550953160870798_);" d="M239.7,180.1c-4-3.2-21.7-6.2-29.1-6.1
		c-13.8,0.1-22.6-8.1-34.5-0.9c-2.9,1.7-5.9,3.2-9,4.1l-5.4,2c-26.9,9.9-56.6,9.9-83.5,0l-5.4-2c-3.2-1.1-6.1-2.5-9-4.1
		c-12-7.2-20.7,1-34.5,0.9c-7.4,0-25,3-29.1,6.1c-5,3.9,69.6,48.6,119.7,49.9c0,0-0.4,0,0,0s1.2,0,1.2,0
		C171.3,228.8,244.8,184.2,239.7,180.1z"/>
</g>
</svg>
